<svg width="37" height="40" viewBox="0 0 37 40" fill="none" xmlns="http://www.w3.org/2000/svg">
<path d="M33.7585 13.5021C33.9836 10.6329 34.8556 8.01688 36.3746 5.65401L30.5518 0C28.6952 1.57527 26.5855 2.41916 24.2227 2.53165C22.0286 2.75671 19.9751 2.36287 18.0623 1.35021C16.0932 2.30658 14.0398 2.70042 11.902 2.53165C9.6516 2.36287 7.65447 1.60338 5.91042 0.253165L0.087637 5.82278C1.49413 8.29814 2.28173 10.858 2.45051 13.5021C2.50679 14.7398 2.14105 16.4557 1.35346 18.6498C0.903418 19.8312 0.565865 20.872 0.340802 21.7722C0.172025 22.6723 0.0595357 23.3755 0.00324882 23.8819C-0.0530381 26.1884 0.622068 28.27 2.02857 30.1266C3.09751 31.5331 4.89776 33.0521 7.42941 34.6835C10.1298 36.0338 12.2114 36.8776 13.6741 37.2152C13.8429 37.2715 14.0539 37.3699 14.307 37.5106C14.5602 37.6512 14.7712 37.7496 14.94 37.8059L16.1214 38.3122C17.0778 38.8749 17.7248 39.4374 18.0623 40C18.4562 39.3812 19.1031 38.8186 20.0032 38.3122C20.7346 38.031 21.2691 37.8059 21.6066 37.6371C22.1692 37.4121 22.4786 37.2715 22.5349 37.2152C22.8724 37.1027 23.2944 36.9339 23.8007 36.7089L25.6573 36.0338C27.0638 35.5837 28.1045 35.1336 28.7796 34.6835C31.1988 33.0521 32.9709 31.5612 34.0961 30.211C35.5026 28.3544 36.2058 26.2447 36.2058 23.8819C36.0933 22.8129 35.6151 21.1251 34.7712 18.8186C33.9836 16.512 33.646 14.7398 33.7585 13.5021Z" fill="#A3885F"/>
</svg>
